<svg width="280" height="110" xmlns="http://www.w3.org/2000/svg" preserveAspectRatio="xMidYMid meet" class="el-tooltip">
 <g>
  <title>background</title>
  <rect fill="none" id="canvas_background" height="112" width="282" y="-1" x="-1"/>
 </g>
 <g>
  <title>Layer 1</title>
  <g stroke="null" class="iconsvg-imagesvg" id="svg_8">
   <rect stroke="null" fill="#333" fill-opacity="0" stroke-width="2" x="48.21634" y="31.228257" width="41.455" height="41.543485" id="svg_9"/>
   <g stroke="null" id="svg_24" transform="matrix(0.7821698053732954,0,0,0.6976999051327774,15.545980944806011,47.9803975955977) ">
    <svg stroke="null" x="41.768884" y="-24.010524" width="53" height="59.543487" class="imagesvg-svg" id="svg_1">
     <g stroke="null" id="svg_2">
      <svg stroke="null" viewBox="0 0 188.56 211.84" id="svg_13">
       <defs stroke="null">
        <linearGradient stroke="null" id="svg_25" x1="-0.041612" y1="1.042768" x2="1.075097" y2="0.035168">
         <stop stroke="null" offset="0" stop-color="#a57317"/>
         <stop stroke="null" offset="0.59" stop-color="#d8bb30"/>
         <stop stroke="null" offset="1" stop-color="#bd9521"/>
        </linearGradient>
       </defs>
       <g stroke="null" id="svg_22">
        <path stroke="null" d="m9,211.84s-36.84,-101.73 38.52,-156.31c52.97,-38.37 137.71,-55.53 137.71,-55.53s31.17,68.75 -97.23,83.08c0,0 -22.75,1.87 -20.59,21.27c0,0 10.66,-10.49 38.52,-14.08l75.86,-11.45s8.38,37.08 -27.9,40.26s-77.19,-7.49 -88.14,18.22c0,0 19.38,-9.29 47.81,-6.45s62.88,5.84 62.88,5.84s-3.24,37.33 -58.29,28.81c-54.48,-8.44 -84.81,11.21 -109.15,46.34z" fill="url(#svg_25)" id="svg_23"/>
       </g>
      </svg>
     </g>
    </svg>
   </g>
   <!---->
  </g>
  <!---->
  <rect stroke="null" x="99.243441" height="0.806131" y="68.392441" width="72.412757" id="svg_19"/>
  <!---->
  <g stroke="null" id="svg_20">
   <path stroke="null" d="m184.56133,63.462531l1.100157,0l0,10.548532l-1.046754,0l0,-1.032722l0,0q-0.598137,1.143369 -1.901234,1.143369l0,0l0,0q-2.809132,-0.110648 -2.958668,-4.204661l0,0l0,0q0.149536,-3.688297 2.809132,-3.860411l0,0l0,0q1.046746,0 1.901241,1.155663l0,0l0,0q0.053403,0.110648 0.096125,0.172121l0,0l0,-0.061474l0,-3.860418zm-3.652939,6.688114l0,0l0,0q0.096133,2.87687 1.805108,2.999818l0,0l0,0q1.805108,-0.233595 1.847831,-2.594108l0,0l0,0q0,-3.28258 -1.805108,-3.28258l0,0l0,0q-1.901234,0 -1.847831,2.87687zm5.960059,0l0,0l0,0q0.202939,-3.921892 3.097524,-4.094006l0,0l0,0q2.905257,0.172121 3.108197,4.094006l0,0l0,0q-0.202939,3.860418 -3.108197,3.971065l0,0l0,0q-2.894585,-0.110648 -3.097524,-3.971065zm1.15356,0l0,0l0,0q0.149536,2.87687 1.943964,2.938344l0,0l0,0q1.805108,-0.061474 1.954644,-2.938344l0,0l0,0q-0.149536,-2.87687 -1.954644,-2.938344l0,0l0,0q-1.794428,0.061474 -1.943964,2.938344zm10.862691,2.938344l0,0.922074l-1.057435,0l0,-10.548532l1.110838,0l0,3.811244l0.042722,0l0,0q0.598145,-1.155669 1.901241,-1.217136l0,0l0,0q2.659596,0.172121 2.809132,3.860418l0,0l0,0q-0.149536,4.094006 -2.958668,4.204654l0,0l0,0q-1.249693,0 -1.794428,-1.032722l0,0l-0.053403,0zm3.652939,-2.938344l0,0l0,0q0.053403,-2.87687 -1.847831,-2.87687l0,0l0,0q-1.805108,0 -1.805108,3.28258l0,0l0,0q0.053403,2.421986 1.847831,2.594108l0,0l0,0q1.751697,-0.061474 1.805108,-2.999818zm7.060208,1.438438l0,0l1.100157,0l0,0q-0.202939,1.327784 -1.196282,2.139211l0,0l0,0q-0.555415,0.393416 -1.805108,0.393416l0,0l0,0q-2.851854,-0.110648 -3.001391,-3.73747l0,0l0,0q0.096133,-4.216954 3.20433,-4.327602l0,0l0,0q2.851862,0.061467 2.894585,4.548897l0,0l-4.902632,0l0,0q0,2.544927 1.954644,2.544927l0,0l0,0q1.39923,-0.122948 1.751705,-1.561379l-0.000008,0zm-3.706342,-2.01627l0,0l3.759753,0l0,0q-0.149536,-2.299039 -1.901241,-2.299039l0,0l0,0q-1.655572,0.172121 -1.858511,2.299039zm8.715788,-3.282587l0,1.094196l-1.100157,0l0,5.016087l0,0q0,0.627005 0.651548,0.627005l0,0l0.448609,0l0,0.983548l0,0q-0.299073,0 -0.704959,0l0,0l0,0q-0.096125,0 -0.149536,0l0,0l0,0q-1.452625,0 -1.399222,-1.499905l0,0l0,-5.126735l-0.854487,0l0,-1.094196l0.854487,0l0,-2.139211l1.15356,0l0,2.139211l1.100157,0zm3.556806,0l0,1.094196l-1.11083,0l0,5.016087l0,0q0,0.627005 0.65154,0.627005l0,0l0.459289,0l0,0.983548l0,0q-0.309753,0 -0.704951,0l0,0l0,0q-0.096133,0 -0.149536,0l0,0l0,0q-1.452633,0 -1.399222,-1.499905l0,0l0,-5.126735l-0.854495,0l0,-1.094196l0.854495,0l0,-2.139211l1.142872,0l0,2.139211l1.110838,0zm5.650306,5.298856l0,0l1.100157,0l0,0q-0.192259,1.327784 -1.196282,2.139211l0,0l0,0q-0.555415,0.393416 -1.805108,0.393416l0,0l0,0q-2.851854,-0.110648 -3.001391,-3.73747l0,0l0,0q0.096133,-4.216954 3.20433,-4.327602l0,0l0,0q2.851862,0.061467 2.905265,4.548897l0,0l-4.913313,0l0,0q0,2.544927 1.954644,2.544927l0,0l0,0q1.39923,-0.122948 1.751705,-1.561379l-0.000008,0zm-3.706342,-2.01627l0,0l3.759753,0l0,0q-0.149536,-2.299039 -1.901241,-2.299039l0,0l0,0q-1.655572,0.172121 -1.858511,2.299039zm7.508817,-0.061474l0,0l0,4.499723l-1.142872,0l0,-7.720836l1.100149,0l0,1.327791l0,0q0.747681,-1.561379 1.901241,-1.561379l0,0l0,0q0.096125,0 0.202939,0.061467l0,0l0,0q0.042722,0 0.096133,0l0,0l0,1.376964l-0.448609,0l0,0q-1.602169,0.122941 -1.708975,2.01627l-0.000008,0z" id="svg_21"/>
  </g>
  <text stroke="null" transform="matrix(2.012850655218475,0,0,1.416783567588313,-107.37009686313283,16.3104216740403) " font-weight="bold" xml:space="preserve" text-anchor="start" font-family="'Times New Roman', Times, serif" font-size="24" id="svg_27" y="28.105634" x="99.571142" fill-opacity="null" stroke-opacity="null" stroke-width="0" fill="#000000">EMES</text>
 </g>
</svg>