<svg xmlns="http://www.w3.org/2000/svg" width="100" height="100" class="el-tooltip" preserveAspectRatio="xMidYMid meet">
 <g>
  <title>background</title>
  <rect fill="none" id="canvas_background" height="402" width="582" y="-1" x="-1"/>
 </g>
 <g>
  <title>Layer 1</title>
  <rect stroke="null" id="svg_5" fill-opacity="0" fill="#fff" height="100" width="100" y="-1" x="1"/>
  <rect stroke="null" id="svg_6" class="watermarklayer" fill="url(#watermark)" height="100" width="100" y="0" x="0"/>
  <g stroke="null" id="svg_7" class="icon-svg-group iconsvg" fill="#333">
   <g stroke="null" id="svg_8" class="iconsvg-imagesvg">
    <rect stroke="null" id="svg_9" height="76.54349" width="63.999792" y="16.228256" x="13.001202" stroke-width="2" fill-opacity="0" fill="#333"/>
    <g transform="matrix(1.2075432538986206,0,0,1.2855056524276733,-3.7357789660325125,-6.917304100870751) " stroke="null" id="svg_2">
     <svg stroke="null" id="svg_10" class="imagesvg-svg" height="59.543487" width="53" y="18.005024" x="13.860357">
      <g stroke="null" id="svg_4">
       <svg stroke="null" id="svg_11" viewBox="0 0 188.56 211.84">
        <defs stroke="null">
         <linearGradient stroke="null" y2="0.035168" x2="1.075097" y1="1.042768" x1="-0.041612" id="svg_3">
          <stop stroke="null" stop-color="#a57317" offset="0"/>
          <stop stroke="null" stop-color="#d8bb30" offset="0.59"/>
          <stop stroke="null" stop-color="#bd9521" offset="1"/>
         </linearGradient>
        </defs>
        <g stroke="null" id="svg_12">
         <path stroke="null" id="svg_13" fill="url(#svg_3)" d="m9,211.84s-36.84,-101.73 38.52,-156.31c52.97,-38.37 137.71,-55.53 137.71,-55.53s31.17,68.75 -97.23,83.08c0,0 -22.75,1.87 -20.59,21.27c0,0 10.66,-10.49 38.52,-14.08l75.86,-11.45s8.38,37.08 -27.9,40.26s-77.19,-7.49 -88.14,18.22c0,0 19.38,-9.29 47.81,-6.45s62.88,5.84 62.88,5.84s-3.24,37.33 -58.29,28.81c-54.48,-8.44 -84.81,11.21 -109.15,46.34z"/>
        </g>
       </svg>
      </g>
     </svg>
    </g>
    <!---->
   </g>
  </g>
 </g>
</svg>
